<?xml version="1.0" encoding="UTF-8" standalone="no"?>
<!-- Created with Inkscape (http://www.inkscape.org/) -->

<svg
   version="1.1"
   id="svg1"
   width="1696"
   height="1429.3333"
   viewBox="0 0 1696 1429.3333"
   sodipodi:docname="Big League Wiffle Ball_final_07062024.eps"
   xmlns:inkscape="http://www.inkscape.org/namespaces/inkscape"
   xmlns:sodipodi="http://sodipodi.sourceforge.net/DTD/sodipodi-0.dtd"
   xmlns="http://www.w3.org/2000/svg"
   xmlns:svg="http://www.w3.org/2000/svg">
  <defs
     id="defs1" />
  <sodipodi:namedview
     id="namedview1"
     pagecolor="#ffffff"
     bordercolor="#000000"
     borderopacity="0.25"
     inkscape:showpageshadow="2"
     inkscape:pageopacity="0.0"
     inkscape:pagecheckerboard="0"
     inkscape:deskcolor="#d1d1d1">
    <inkscape:page
       x="0"
       y="0"
       inkscape:label="1"
       id="page1"
       width="1696"
       height="1429.3333"
       margin="0"
       bleed="0" />
  </sodipodi:namedview>
  <g
     id="g1"
     inkscape:groupmode="layer"
     inkscape:label="1">
    <g
       id="group-R5">
      <path
         id="path2"
         d="m 3515.38,3399.16 c 0,29.39 -13.82,43.24 -43.23,43.24 h -32.3 v -121.11 h 38.06 c 23.65,0 37.47,13.83 37.47,37.52 z m -75.53,210.47 v -109.57 h 27.1 c 29.42,0 43.27,13.85 43.27,43.24 v 28.83 c 0,23.67 -13.85,37.5 -37.51,37.5 z m 136.67,-216.82 v -32.87 c 0,-58.28 -37.49,-96.33 -95.72,-96.33 h -102.07 v 403.71 h 96.88 c 58.25,0 95.73,-38.08 95.73,-96.32 v -21.31 c 0,-36.35 -14.41,-62.31 -40.94,-77.31 29.4,-13.81 46.12,-40.93 46.12,-79.57"
         style="fill:#252f68;fill-opacity:1;fill-rule:nonzero;stroke:none"
         transform="matrix(0.13333333,0,0,-0.13333333,0,1429.3333)" />
      <path
         id="path3"
         d="m 3439.82,3607.19 v 2.46 z m 2.52,-104.61 h 24.61 c 28.55,0.43 40.34,12.19 40.76,40.76 v 0 28.79 c -0.3,22.66 -12.41,34.76 -35,35.06 v 0 h -30.37 v -104.61 z m -4.99,-4.98 v 114.53 l 35.36,0.08 c 24.7,-0.12 39.95,-15.35 39.97,-40.08 v 0 -28.79 c -0.02,-30.23 -15.48,-45.74 -45.73,-45.74 v 0 h -29.6 z m 4.96,-173.81 h 35.6 c 22.57,0.29 34.75,12.36 34.97,35.02 v 0 40.35 c -0.42,28.54 -12.2,40.33 -40.77,40.8 v 0 h -29.8 v -116.17 z m -4.96,-4.94 v 126.05 h 34.76 c 30.27,-0.02 45.74,-15.47 45.78,-45.74 v 0 -40.35 c -0.04,-24.67 -15.32,-39.94 -39.98,-39.96 v 0 h -40.56 z m -56.15,-52.7 h 99.6 c 57.08,0.2 93.04,36.68 93.23,93.83 v 0 32.83 h -0.05 c -0.06,37.97 -16.13,63.85 -44.66,77.35 v 0 l -4.37,2.07 4.21,2.34 c 25.7,14.61 39.58,39.39 39.68,75.12 v 0 21.31 c -0.18,57.12 -36.19,93.63 -93.27,93.79 v 0 l -94.37,0.05 v -398.69 z m -4.96,-5.06 v 408.77 h 99.33 c 59.44,-0.15 98.18,-39.45 98.27,-98.86 v 0 -21.31 c 0.08,-35.16 -13.45,-61.39 -38.29,-77.09 v 0 c 27.75,-14.77 43.53,-42.23 43.45,-79.79 v 0 -32.83 c -0.09,-59.41 -38.81,-98.75 -98.2,-98.89 v 0 h -104.56 v 0"
         style="fill:#252f68;fill-opacity:1;fill-rule:nonzero;stroke:none"
         transform="matrix(0.13333333,0,0,-0.13333333,0,1429.3333)" />
      <path
         id="path4"
         d="m 3695.3,3667.32 h 61.13 v -403.71 h -61.13 v 403.71"
         style="fill:#252f68;fill-opacity:1;fill-rule:nonzero;stroke:none"
         transform="matrix(0.13333333,0,0,-0.13333333,0,1429.3333)" />
      <path
         id="path5"
         d="m 3697.76,3266.15 h 56.15 v 398.67 h -56.1 l -0.05,-398.67 z m -4.98,-5 v 408.67 h 66.12 v -408.67 h -66.12 v 0"
         style="fill:#252f68;fill-opacity:1;fill-rule:nonzero;stroke:none"
         transform="matrix(0.13333333,0,0,-0.13333333,0,1429.3333)" />
      <path
         id="path6"
         d="m 4016.5,3541.6 v 34.01 c 0,25.37 -14.41,39.8 -36.92,39.8 -22.5,0 -36.89,-14.43 -36.89,-39.8 v -220.32 c 0,-25.35 14.39,-39.74 36.89,-39.74 22.51,0 36.92,14.39 36.92,39.74 v 71.55 h -36.92 v 57.65 h 98.03 v -129.2 c 0,-58.22 -39.21,-97.42 -98.03,-97.42 -58.82,0 -98.03,39.2 -98.03,97.42 v 220.32 c 0,58.24 39.21,97.46 98.03,97.46 58.82,0 98.03,-39.22 98.03,-97.46 v -34.01 h -61.11"
         style="fill:#252f68;fill-opacity:1;fill-rule:nonzero;stroke:none"
         transform="matrix(0.13333333,0,0,-0.13333333,0,1429.3333)" />
      <path
         id="path7"
         d="m 3884.06,3575.61 v -220.32 c 0.12,-56.99 37.89,-94.72 95.52,-94.92 v 0 c 57.66,0.2 95.36,37.93 95.5,94.92 v 0 126.74 h -92.99 v -52.73 h 36.89 v -74.01 c -0.03,-26.29 -15.72,-42.18 -39.4,-42.24 v 0 c -23.63,0.06 -39.38,15.95 -39.42,42.24 v 0 l 0.04,220.32 c 0,26.36 15.75,42.26 39.38,42.3 v 0 c 23.68,-0.04 39.37,-15.94 39.4,-42.3 v 0 -31.51 h 56.1 v 31.51 c -0.14,57.07 -37.84,94.78 -95.5,94.96 v 0 c -57.63,-0.18 -95.4,-37.89 -95.52,-94.96 z m -5.01,-220.32 v 220.32 c 0.09,59.47 40.54,99.88 100.53,99.96 v 0 c 60.01,-0.08 100.44,-40.49 100.51,-99.96 v 0 -36.49 h -63.59 v 2.44 h 2.48 -2.48 v -2.44 h -2.54 v 36.49 c -0.23,24.43 -13.04,37.09 -34.38,37.28 v 0 c -21.33,-0.19 -34.16,-12.85 -34.41,-37.28 v 0 -220.32 c 0.25,-24.35 13.08,-37.05 34.41,-37.22 v 0 c 21.34,0.17 34.15,12.87 34.38,37.22 v 0 69.07 h -36.88 v 62.65 h 103.06 v -131.72 c -0.12,-59.39 -40.55,-99.82 -100.56,-99.9 v 0 c -59.99,0.08 -100.44,40.51 -100.53,99.9 v 0"
         style="fill:#252f68;fill-opacity:1;fill-rule:nonzero;stroke:none"
         transform="matrix(0.13333333,0,0,-0.13333333,0,1429.3333)" />
      <path
         id="path8"
         d="m 4379.19,3667.32 h 61.13 v -346.03 h 109 v -57.68 h -170.13 v 403.71"
         style="fill:#252f68;fill-opacity:1;fill-rule:nonzero;stroke:none"
         transform="matrix(0.13333333,0,0,-0.13333333,0,1429.3333)" />
      <path
         id="path9"
         d="m 4381.71,3266.15 h 165.06 v 52.7 h -108.99 v 345.99 h -56.07 v -398.69 z m -5.01,-5.06 v 408.71 h 66.11 v -345.97 h 109 v -62.74 H 4376.7 v 0"
         style="fill:#252f68;fill-opacity:1;fill-rule:nonzero;stroke:none"
         transform="matrix(0.13333333,0,0,-0.13333333,0,1429.3333)" />
      <path
         id="path10"
         d="m 4660.03,3667.32 h 173.57 v -57.69 h -112.46 v -112.44 h 89.39 v -57.7 h -89.39 v -118.2 h 112.46 v -57.68 h -173.57 v 403.71"
         style="fill:#252f68;fill-opacity:1;fill-rule:nonzero;stroke:none"
         transform="matrix(0.13333333,0,0,-0.13333333,0,1429.3333)" />
      <path
         id="path11"
         d="m 4662.47,3266.15 h 168.63 v 52.7 h -112.47 v 123.18 H 4808 v 52.66 h -89.37 v 117.52 h 112.47 v 52.58 h -168.56 l -0.07,-398.64 z m -4.95,-5.06 v 408.77 h 178.59 v -62.71 H 4723.63 V 3499.71 H 4813 v -62.7 h -89.37 v -113.18 h 112.48 v -62.74 h -178.59 v 0"
         style="fill:#252f68;fill-opacity:1;fill-rule:nonzero;stroke:none"
         transform="matrix(0.13333333,0,0,-0.13333333,0,1429.3333)" />
      <path
         id="path12"
         d="m 5065.87,3396.86 -24.08,183.94 -25.52,-183.94 z m 10.17,-58.83 h -69.58 l -10.83,-74.42 h -61.12 l 66.91,403.71 h 81.89 l 66.89,-403.71 h -62.28 l -11.88,74.42"
         style="fill:#252f68;fill-opacity:1;fill-rule:nonzero;stroke:none"
         transform="matrix(0.13333333,0,0,-0.13333333,0,1429.3333)" />
      <path
         id="path13"
         d="m 5019.14,3399.36 h 43.89 l -21.34,162.75 -22.55,-162.75 z m -5.75,-4.95 25.93,186.74 h 4.93 l 24.09,-183.92 -2.47,-0.34 v 2.47 -2.47 l 2.47,0.34 0.39,-2.82 h -55.34 z m 64.71,-53.86 11.92,-74.4 h 57.2 l -66.05,398.64 h -77.67 l -66.07,-398.64 h 56.03 l 10.85,74.4 h 71.73 v -2.5 l -2.47,-0.39 2.47,0.39 v 2.5 h 2.06 z m 7.68,-79.46 -11.86,74.42 h -65.29 l -10.86,-74.42 h -66.24 l 67.76,408.77 h 86.11 l 67.75,-408.77 h -67.37 v 0"
         style="fill:#252f68;fill-opacity:1;fill-rule:nonzero;stroke:none"
         transform="matrix(0.13333333,0,0,-0.13333333,0,1429.3333)" />
      <path
         id="path14"
         d="m 8692.08,3396.86 -24.17,183.94 -25.46,-183.94 z m 10.12,-58.83 h -69.55 l -10.84,-74.42 h -61.12 l 66.88,403.71 h 81.9 l 66.9,-403.71 h -62.28 l -11.89,74.42"
         style="fill:#252f68;fill-opacity:1;fill-rule:nonzero;stroke:none"
         transform="matrix(0.13333333,0,0,-0.13333333,0,1429.3333)" />
      <path
         id="path15"
         d="m 8645.31,3399.36 h 43.85 l -21.32,162.75 -22.53,-162.75 z m -5.79,-4.95 25.94,186.74 h 4.93 l 24.11,-183.92 -2.5,-0.34 v 2.47 -2.47 l 2.5,0.34 0.4,-2.82 h -55.38 z m 64.8,-53.86 11.87,-74.4 h 57.22 l -66.06,398.64 h -77.64 l -66.08,-398.64 h 56.01 l 10.82,74.4 h 71.74 v -2.5 l -2.46,-0.39 2.46,0.39 v 2.5 h 2.12 z m 7.61,-79.46 -11.86,74.42 h -65.28 l -10.78,-74.42 h -66.29 l 67.73,408.77 h 86.07 l 67.8,-408.77 h -67.39 v 0"
         style="fill:#252f68;fill-opacity:1;fill-rule:nonzero;stroke:none"
         transform="matrix(0.13333333,0,0,-0.13333333,0,1429.3333)" />
      <path
         id="path16"
         d="m 5390.07,3541.6 v 34.01 c 0,25.37 -14.41,39.8 -36.9,39.8 -22.48,0 -36.9,-14.43 -36.9,-39.8 v -220.32 c 0,-25.35 14.42,-39.74 36.9,-39.74 22.49,0 36.9,14.39 36.9,39.74 v 71.55 h -36.9 v 57.65 h 98.04 v -129.2 c 0,-58.22 -39.21,-97.42 -98.04,-97.42 -58.81,0 -98.05,39.2 -98.05,97.42 v 220.32 c 0,58.24 39.24,97.46 98.05,97.46 58.83,0 98.04,-39.22 98.04,-97.46 v -34.01 h -61.14"
         style="fill:#252f68;fill-opacity:1;fill-rule:nonzero;stroke:none"
         transform="matrix(0.13333333,0,0,-0.13333333,0,1429.3333)" />
      <path
         id="path17"
         d="m 5257.63,3575.61 v -220.32 c 0.17,-56.99 37.89,-94.72 95.56,-94.92 v 0 c 57.6,0.2 95.34,37.93 95.51,94.92 v 0 126.74 h -93.04 v -52.73 h 36.9 v -74.01 c -0.05,-26.29 -15.73,-42.18 -39.37,-42.24 v 0 c -23.67,0.06 -39.38,15.95 -39.43,42.24 v 0 220.32 c 0.05,26.36 15.76,42.26 39.43,42.3 v 0 c 23.64,-0.04 39.32,-15.94 39.37,-42.3 v 0 -31.51 h 56.14 v 31.51 c -0.17,57.07 -37.91,94.78 -95.51,94.96 v 0 c -57.67,-0.18 -95.39,-37.89 -95.56,-94.96 z m -5.03,-220.32 v 220.32 c 0.15,59.47 40.56,99.88 100.59,99.96 v 0 c 59.99,-0.08 100.38,-40.49 100.52,-99.96 v 0 -36.49 h -63.64 v 2.44 h 2.49 -2.49 v -2.44 h -2.47 v 36.49 c -0.27,24.43 -13.13,37.09 -34.41,37.28 v 0 c -21.33,-0.19 -34.2,-12.85 -34.44,-37.28 v 0 l -0.01,-220.32 c 0.25,-24.35 13.12,-37.05 34.45,-37.22 v 0 c 21.28,0.17 34.14,12.87 34.41,37.22 v 0 69.07 h -36.94 v 62.65 h 103.05 v -131.72 c -0.14,-59.39 -40.53,-99.82 -100.52,-99.9 v 0 c -60.03,0.08 -100.44,40.51 -100.59,99.9 v 0"
         style="fill:#252f68;fill-opacity:1;fill-rule:nonzero;stroke:none"
         transform="matrix(0.13333333,0,0,-0.13333333,0,1429.3333)" />
      <path
         id="path18"
         d="m 5571.7,3352.42 v 314.9 h 61.14 v -314.9 c 0,-23.65 14.43,-36.87 34.02,-36.87 19.61,0 34.03,13.22 34.03,36.87 v 314.9 h 59.97 v -314.9 c 0,-56.5 -38.07,-94.55 -94,-94.55 -55.93,0 -95.16,38.05 -95.16,94.55"
         style="fill:#252f68;fill-opacity:1;fill-rule:nonzero;stroke:none"
         transform="matrix(0.13333333,0,0,-0.13333333,0,1429.3333)" />
      <path
         id="path19"
         d="m 5574.19,3352.42 c 0.15,-55.23 37.9,-91.91 92.67,-92.01 v 0 c 54.73,0.1 91.36,36.72 91.49,92.01 v 0 312.37 h -54.98 v -312.37 c -0.03,-24.69 -15.68,-39.31 -36.51,-39.37 v 0 c -20.82,0.06 -36.5,14.68 -36.54,39.37 v 0 312.37 h -56.13 v -312.37 z m -4.98,0 v 317.4 h 66.12 v -317.4 c 0.22,-22.52 13.12,-34.18 31.53,-34.41 v 0 c 18.39,0.23 31.32,11.89 31.51,34.41 v 0 317.4 h 65 v -317.4 c -0.1,-57.67 -39.38,-96.95 -96.51,-97.03 v 0 c -57.1,0.08 -97.58,39.34 -97.65,97.03 v 0"
         style="fill:#252f68;fill-opacity:1;fill-rule:nonzero;stroke:none"
         transform="matrix(0.13333333,0,0,-0.13333333,0,1429.3333)" />
      <path
         id="path20"
         d="m 5888.86,3667.32 h 173.58 v -57.69 h -112.45 v -112.44 h 89.39 v -57.7 h -89.39 v -118.2 h 112.45 v -57.68 h -173.58 v 403.71"
         style="fill:#252f68;fill-opacity:1;fill-rule:nonzero;stroke:none"
         transform="matrix(0.13333333,0,0,-0.13333333,0,1429.3333)" />
      <path
         id="path21"
         d="m 5891.37,3266.15 h 168.56 v 52.7 h -112.46 v 123.18 h 89.42 v 52.66 h -89.42 v 117.52 h 112.46 v 52.58 h -168.56 v -398.64 z m -5.01,-5.06 v 408.77 h 178.58 v -62.71 h -112.46 v -107.44 h 89.39 v -62.7 h -89.39 v -113.18 h 112.46 v -62.74 h -178.58 v 0"
         style="fill:#252f68;fill-opacity:1;fill-rule:nonzero;stroke:none"
         transform="matrix(0.13333333,0,0,-0.13333333,0,1429.3333)" />
      <path
         id="path22"
         d="m 6655.25,3667.32 -59.4,-403.71 h -67.47 l -32.28,265.9 -32.33,-265.9 h -67.48 l -59.36,403.71 h 61.71 l 33.43,-272.77 33.46,272.77 h 62.26 l 33.46,-272.77 33.43,272.77 h 60.57"
         style="fill:#252f68;fill-opacity:1;fill-rule:nonzero;stroke:none"
         transform="matrix(0.13333333,0,0,-0.13333333,0,1429.3333)" />
      <path
         id="path23"
         d="m 6398.5,3266.11 h 63.07 l 32.04,263.66 h 4.96 l 32.02,-263.62 h 63.07 l 58.69,398.64 -55.46,0.05 -33.17,-270.56 h -4.97 l -33.18,270.56 h -57.84 l -33.17,-270.56 h -4.98 l -33.21,270.51 h -56.57 l 58.7,-398.68 z m 127.62,-5.02 -30.08,247.66 -30.06,-247.6 h -71.87 l -60.07,408.71 h 66.77 l 31.27,-254.72 31.19,254.66 h 66.74 l 31.23,-254.66 31.22,254.72 h 62.79 v -2.54 2.54 h 2.85 l -60.11,-408.77 h -71.87 v 0"
         style="fill:#252f68;fill-opacity:1;fill-rule:nonzero;stroke:none"
         transform="matrix(0.13333333,0,0,-0.13333333,0,1429.3333)" />
      <path
         id="path24"
         d="m 6766.55,3667.32 h 61.12 v -403.71 h -61.12 v 403.71"
         style="fill:#252f68;fill-opacity:1;fill-rule:nonzero;stroke:none"
         transform="matrix(0.13333333,0,0,-0.13333333,0,1429.3333)" />
      <path
         id="path25"
         d="m 6769.04,3266.15 h 56.11 v 398.67 h -56.11 v -398.67 z m -5.01,-5 v 408.67 h 66.11 v -408.67 h -66.11 v 0"
         style="fill:#252f68;fill-opacity:1;fill-rule:nonzero;stroke:none"
         transform="matrix(0.13333333,0,0,-0.13333333,0,1429.3333)" />
      <path
         id="path26"
         d="m 6957.99,3667.32 h 170.66 v -57.69 h -109.56 v -118.22 h 86.52 v -57.66 h -86.52 v -170.14 h -61.1 v 403.71"
         style="fill:#252f68;fill-opacity:1;fill-rule:nonzero;stroke:none"
         transform="matrix(0.13333333,0,0,-0.13333333,0,1429.3333)" />
      <path
         id="path27"
         d="m 6960.46,3266.15 h 56.11 v 170.1 h 86.55 v 52.66 h -86.55 v 123.22 h 109.59 v 52.69 h -165.7 v -398.67 z m -4.94,-5 v 408.67 h 175.62 v -62.67 h -109.55 v -113.24 h 86.49 v -62.64 h -86.49 v -170.12 h -66.07 v 0"
         style="fill:#252f68;fill-opacity:1;fill-rule:nonzero;stroke:none"
         transform="matrix(0.13333333,0,0,-0.13333333,0,1429.3333)" />
      <path
         id="path28"
         d="m 7239.38,3667.32 h 170.67 v -57.69 h -109.56 v -118.22 h 86.5 v -57.66 h -86.5 v -170.14 h -61.11 v 403.71"
         style="fill:#252f68;fill-opacity:1;fill-rule:nonzero;stroke:none"
         transform="matrix(0.13333333,0,0,-0.13333333,0,1429.3333)" />
      <path
         id="path29"
         d="m 7241.85,3266.15 h 56.12 v 170.1 h 86.51 v 52.66 h -86.51 v 123.22 h 109.62 v 52.69 h -165.74 v -398.67 z m -4.97,-5 v 408.67 h 175.64 v -62.67 h -109.54 v -113.24 h 86.49 v -62.64 h -86.49 v -170.12 h -66.1 v 0"
         style="fill:#252f68;fill-opacity:1;fill-rule:nonzero;stroke:none"
         transform="matrix(0.13333333,0,0,-0.13333333,0,1429.3333)" />
      <path
         id="path30"
         d="m 7520.75,3667.32 h 61.15 v -346.03 h 108.97 v -57.68 h -170.12 v 403.71"
         style="fill:#252f68;fill-opacity:1;fill-rule:nonzero;stroke:none"
         transform="matrix(0.13333333,0,0,-0.13333333,0,1429.3333)" />
      <path
         id="path31"
         d="m 7523.24,3266.15 h 165.12 v 52.7 h -109 v 345.99 h -56.12 v -398.69 z m -4.99,-5.06 v 408.71 h 66.13 l 0.02,-345.97 h 109 v -62.74 h -175.15 v 0"
         style="fill:#252f68;fill-opacity:1;fill-rule:nonzero;stroke:none"
         transform="matrix(0.13333333,0,0,-0.13333333,0,1429.3333)" />
      <path
         id="path32"
         d="m 7801.58,3667.32 h 173.59 v -57.69 h -112.46 v -112.44 h 89.36 v -57.7 h -89.36 v -118.2 h 112.46 v -57.68 h -173.59 v 403.71"
         style="fill:#252f68;fill-opacity:1;fill-rule:nonzero;stroke:none"
         transform="matrix(0.13333333,0,0,-0.13333333,0,1429.3333)" />
      <path
         id="path33"
         d="m 7804.1,3266.15 h 168.53 v 52.7 h -112.4 v 123.18 h 89.38 v 52.66 h -89.41 v 117.52 h 112.43 v 52.58 H 7804.1 v -398.64 z m -5.01,-5.06 v 408.77 h 178.58 v -62.71 h -112.48 v -107.44 h 89.41 v -62.7 h -89.41 v -113.18 h 112.48 v -62.74 h -178.58 v 0"
         style="fill:#252f68;fill-opacity:1;fill-rule:nonzero;stroke:none"
         transform="matrix(0.13333333,0,0,-0.13333333,0,1429.3333)" />
      <path
         id="path34"
         d="m 8405.36,3399.16 c 0,29.39 -13.85,43.24 -43.27,43.24 h -32.28 v -121.11 h 38.04 c 23.66,0 37.51,13.83 37.51,37.52 z m -75.55,210.47 v -109.57 h 27.09 c 29.4,0 43.25,13.85 43.25,43.24 v 28.83 c 0,23.67 -13.85,37.5 -37.47,37.5 z m 136.68,-216.82 v -32.87 c 0,-58.28 -37.51,-96.33 -95.73,-96.33 h -102.07 v 403.71 h 96.88 c 58.26,0 95.74,-38.08 95.74,-96.32 v -21.31 c 0,-36.35 -14.43,-62.31 -40.96,-77.31 29.4,-13.81 46.14,-40.93 46.14,-79.57"
         style="fill:#252f68;fill-opacity:1;fill-rule:nonzero;stroke:none"
         transform="matrix(0.13333333,0,0,-0.13333333,0,1429.3333)" />
      <path
         id="path35"
         d="m 8329.83,3607.19 v 2.46 z m 2.47,-104.61 h 24.6 c 28.57,0.43 40.36,12.19 40.75,40.76 v 0 28.79 c -0.28,22.66 -12.4,34.76 -35,35.06 v 0 h -30.35 v -104.61 z m -4.99,-4.98 v 114.53 l 35.34,0.08 c 24.7,-0.12 39.97,-15.35 40.03,-40.08 v 0 -28.79 c -0.06,-30.23 -15.54,-45.74 -45.78,-45.74 v 0 h -29.59 z m 4.99,-173.81 h 35.57 c 22.59,0.29 34.72,12.36 34.97,35.02 v 0 40.35 c -0.41,28.54 -12.19,40.33 -40.7,40.8 v 0 h -29.84 v -116.17 z m -4.99,-4.94 v 126.05 h 34.83 c 30.23,-0.02 45.64,-15.47 45.69,-45.74 v 0 -40.35 c -0.05,-24.67 -15.24,-39.94 -39.96,-39.96 v 0 h -40.56 z m -56.15,-52.7 h 99.6 c 57.07,0.2 93.02,36.68 93.2,93.83 v 0 32.83 c -0.06,37.97 -16.15,63.85 -44.68,77.35 v 0 l -4.38,2.07 4.23,2.34 c 25.69,14.61 39.59,39.39 39.63,75.12 v 0 21.31 c -0.16,57.12 -36.1,93.63 -93.19,93.79 v 0 l -94.41,0.05 v -398.69 z m -4.96,-5.06 v 408.77 h 99.37 c 59.4,-0.15 98.13,-39.45 98.21,-98.86 v 0 -21.31 c 0.06,-35.16 -13.45,-61.39 -38.27,-77.09 v 0 c 27.76,-14.77 43.58,-42.23 43.5,-79.79 v 0 h -0.05 l 0.05,-32.83 c -0.13,-59.41 -38.83,-98.75 -98.25,-98.89 v 0 H 8266.2 v 0"
         style="fill:#252f68;fill-opacity:1;fill-rule:nonzero;stroke:none"
         transform="matrix(0.13333333,0,0,-0.13333333,0,1429.3333)" />
      <path
         id="path36"
         d="m 8890.31,3667.32 h 61.14 v -346.03 h 108.98 v -57.68 h -170.12 v 403.71"
         style="fill:#252f68;fill-opacity:1;fill-rule:nonzero;stroke:none"
         transform="matrix(0.13333333,0,0,-0.13333333,0,1429.3333)" />
      <path
         id="path37"
         d="m 8892.82,3266.15 h 165.14 v 52.7 H 8948.9 v 345.99 h -56.08 v -398.69 z m -4.99,-5.06 v 408.71 h 66.12 v -345.97 h 108.96 v -62.74 h -175.08 v 0"
         style="fill:#252f68;fill-opacity:1;fill-rule:nonzero;stroke:none"
         transform="matrix(0.13333333,0,0,-0.13333333,0,1429.3333)" />
      <path
         id="path38"
         d="m 9171.16,3667.32 h 61.12 v -346.03 h 109.01 v -57.68 h -170.13 v 403.71"
         style="fill:#252f68;fill-opacity:1;fill-rule:nonzero;stroke:none"
         transform="matrix(0.13333333,0,0,-0.13333333,0,1429.3333)" />
      <path
         id="path39"
         d="m 9173.64,3266.15 h 165.12 v 52.7 h -109.01 v 345.99 h -56.11 v -398.69 z m -4.99,-5.06 v 408.71 h 66.1 v -345.97 h 109.02 v -62.74 h -175.12 v 0"
         style="fill:#252f68;fill-opacity:1;fill-rule:nonzero;stroke:none"
         transform="matrix(0.13333333,0,0,-0.13333333,0,1429.3333)" />
      <path
         id="path40"
         d="m 2874.48,4115.18 c 83.08,-152.43 244.72,-255.81 430.52,-255.81 h 6110.01 c 185.82,0 347.45,103.38 430.53,255.81 H 2874.48"
         style="fill:#ed1833;fill-opacity:1;fill-rule:nonzero;stroke:none"
         transform="matrix(0.13333333,0,0,-0.13333333,0,1429.3333)" />
      <path
         id="path41"
         d="m 4043.83,6811.43 -135.38,98.37 -135.4,-98.37 51.71,159.16 -135.39,98.34 h 167.38 l 51.7,159.19 51.71,-159.19 h 167.34 l -135.39,-98.34 z m -413.97,-968.14 -135.4,98.38 -135.38,-98.38 51.72,159.16 -135.38,98.37 h 167.34 l 51.7,159.16 51.71,-159.16 h 167.38 l -135.41,-98.37 z m -557.89,694.38 51.73,159.15 -135.39,98.37 h 167.34 l 51.71,159.16 51.7,-159.16 h 167.38 l -135.4,-98.37 51.72,-159.15 -135.4,98.37 z m 6326.01,926.93 h -901.76 c 135.13,-97.45 223.21,-256.13 223.21,-435.46 0,-296.42 -240.28,-536.71 -536.67,-536.71 -296.39,0 -536.69,240.29 -536.69,536.71 0,179.33 88.08,338.01 223.23,435.46 H 3322.06 c -278.97,0 -505.12,-226.15 -505.12,-505.11 V 5583.28 h 22.64 c 0,0 516.09,0 688.13,0 172.02,0 261.98,58.48 267.18,201.31 7.33,201.32 -14.62,384.32 168.37,611.25 221.49,274.64 549.04,252.58 549.04,252.58 0,0 -21.97,142.72 36.59,303.78 69.46,191.05 431.91,494.13 896.75,424.58 464.84,-69.55 439.23,-453.87 439.23,-453.87 0,0 -131.77,29.29 -344.07,3.66 -212.3,-25.62 -391.64,-135.43 -259.86,-146.41 131.76,-10.98 464.85,29.3 699.08,-14.63 234.27,-43.92 234.27,-153.73 208.65,-168.38 -25.63,-14.65 -618.59,7.32 -819.89,0 -201.3,-7.31 -366.03,-47.56 -413.62,-117.12 284.6,24.29 966.94,-46.79 1077.49,-54.23 60.14,77.38 111.9,122.74 151.32,86.77 42.33,-38.62 208.14,-63.26 296.47,-76.87 214.13,-32.94 274.58,-33.21 356.86,-159.21 115.31,131.77 159.2,142.94 207.5,125.46 48.32,-17.5 95.53,-186.79 95.53,-186.79 0,0 2357.15,318.15 2564.73,339.27 100.05,10.19 161.49,-12.27 198,-53.62 v 458.68 c 0,278.96 -226.13,505.11 -505.08,505.11"
         style="fill:#252f68;fill-opacity:1;fill-rule:nonzero;stroke:none"
         transform="matrix(0.13333333,0,0,-0.13333333,0,1429.3333)" />
      <path
         id="path42"
         d="m 7806.14,7293.53 c -5.21,-60.89 8.68,-109.62 52.17,-91.34 43.49,18.24 47.84,46.98 49.59,127 1.73,80.01 29.57,114.82 4.36,116.58 -25.23,1.7 -54.8,-21.77 -54.8,-21.77 -35.67,-33.05 -46.11,-69.57 -51.32,-130.47"
         style="fill:#252f68;fill-opacity:1;fill-rule:nonzero;stroke:none"
         transform="matrix(0.13333333,0,0,-0.13333333,0,1429.3333)" />
      <path
         id="path43"
         d="m 8117.52,7210.89 c 42.63,4.35 62.62,40.02 94.81,93.08 32.18,53.08 53.92,91.32 63.5,109.59 7.58,14.43 -3.07,38.52 -26.7,51.04 h -69.18 c -6.13,-3.45 -9.35,-6.66 -9.35,-6.66 0,0 -65.25,-69.6 -99.2,-138.32 -33.9,-68.71 3.5,-113.06 46.12,-108.73"
         style="fill:#252f68;fill-opacity:1;fill-rule:nonzero;stroke:none"
         transform="matrix(0.13333333,0,0,-0.13333333,0,1429.3333)" />
      <path
         id="path44"
         d="m 8171.43,6635.09 c -34.77,-9.61 -28.7,-38.25 -28.7,-38.25 2.62,-20.91 24.18,-42.68 70.46,-59.2 51.33,-18.25 86.49,-13.22 119.16,-3.43 58.28,17.37 65.23,37.38 46.99,38.25 -18.29,0.86 -72.19,24.38 -106.13,40.89 -33.9,16.54 -66.96,31.31 -101.78,21.74"
         style="fill:#252f68;fill-opacity:1;fill-rule:nonzero;stroke:none"
         transform="matrix(0.13333333,0,0,-0.13333333,0,1429.3333)" />
      <path
         id="path45"
         d="m 8376.71,7027.37 c 60.91,29.56 128.75,72.17 155.7,94.8 26.97,22.64 30.45,57.44 13.94,80.9 -16.55,23.5 -43.51,34.78 -77.42,19.15 0,0 -75.68,-40.91 -118.3,-61.75 -42.62,-20.91 -86.98,-39.17 -87.84,-85.25 -0.89,-46.08 53.06,-77.42 113.92,-47.85"
         style="fill:#252f68;fill-opacity:1;fill-rule:nonzero;stroke:none"
         transform="matrix(0.13333333,0,0,-0.13333333,0,1429.3333)" />
      <path
         id="path46"
         d="m 8402.83,6729.86 c 55.65,1.8 143.46,19.52 176.56,49.61 28.7,26.08 31.3,83.51 -35.67,76.57 0,0 -64.38,-7.87 -120.03,-6.09 -55.66,1.72 -117.43,-8.71 -123.48,-58.29 -6.13,-49.61 46.93,-63.48 102.62,-61.8"
         style="fill:#252f68;fill-opacity:1;fill-rule:nonzero;stroke:none"
         transform="matrix(0.13333333,0,0,-0.13333333,0,1429.3333)" />
      <path
         id="path47"
         d="m 7901.8,6587.25 c 0,0 47.83,-33.05 116.57,-48.71 -17.42,37.39 -26.96,70.46 -77.42,86.11 -50.46,15.66 -50.46,-13.9 -39.15,-37.4"
         style="fill:#252f68;fill-opacity:1;fill-rule:nonzero;stroke:none"
         transform="matrix(0.13333333,0,0,-0.13333333,0,1429.3333)" />
      <path
         id="path48"
         d="m 7730.44,7021.3 c 12.19,29.55 3.5,66.94 -13.06,91.3 -16.49,24.37 -26.04,43.51 -26.04,43.51 -20.05,-32.16 -28.72,-101.78 -19.14,-128.74 9.57,-26.95 46.08,-35.64 58.24,-6.07"
         style="fill:#252f68;fill-opacity:1;fill-rule:nonzero;stroke:none"
         transform="matrix(0.13333333,0,0,-0.13333333,0,1429.3333)" />
      <path
         id="path49"
         d="m 7762.64,6794.25 c -23.49,42.63 -50.43,40.9 -57.39,37.43 0,0 21.74,-69.6 52.18,-107.01 25.23,8.69 28.7,27.01 5.21,69.58"
         style="fill:#252f68;fill-opacity:1;fill-rule:nonzero;stroke:none"
         transform="matrix(0.13333333,0,0,-0.13333333,0,1429.3333)" />
      <path
         id="path50"
         d="m 6898.74,6011.52 c 0,0 -285.49,-117.14 -376.99,-87.85 -91.52,29.3 -208.64,153.73 -248.89,234.26 -40.27,80.53 -95.17,73.22 -73.22,-54.91 -475.81,-51.23 -1098.05,-190.31 -1284.73,-182.99 -186.67,7.31 -457.52,113.45 -457.52,113.45 241.58,-223.26 181.17,-386.15 65.89,-450.2 1057.79,0 2002.14,0 2002.14,0 0,0 -58.57,142.75 150.06,256.21 208.63,113.48 234.27,113.46 223.26,172.03"
         style="fill:#ed1833;fill-opacity:1;fill-rule:nonzero;stroke:none"
         transform="matrix(0.13333333,0,0,-0.13333333,0,1429.3333)" />
      <path
         id="path51"
         d="m 7205.17,6029.42 c 0,0 27.44,-137.26 -52.34,-186.81 -52.08,-32.34 -96.79,-48.44 -134.07,-55.42 -22.71,-118.32 50.61,-203.91 216.72,-203.91 162.86,0 2513.97,0 2667.58,0 v 592.97 c -29.06,-31.87 -69.08,-45.68 -113.46,-48.94 -85.43,-6.27 -2584.43,-97.89 -2584.43,-97.89"
         style="fill:#ed1833;fill-opacity:1;fill-rule:nonzero;stroke:none"
         transform="matrix(0.13333333,0,0,-0.13333333,0,1429.3333)" />
      <path
         id="path52"
         d="m 4223.01,4573.32 h 583.77 c 65.3,0 97.96,27.6 97.96,82.83 0,34.71 -8.1,58.69 -24.3,71.94 -17.45,12.26 -42.01,18.36 -73.66,18.36 h -583.77 z m 0,418.44 h 597.6 c 26.43,0 47.36,6.11 62.81,18.36 14.22,11.21 21.32,29.53 21.32,54.94 0,26.7 -7.15,45.64 -21.5,56.87 -14.33,11.23 -35.22,16.8 -62.63,16.8 h -597.6 z m 642.1,412.14 c 104.97,0 181.49,-15.31 229.61,-45.98 71.56,-46.14 107.33,-134.01 107.33,-263.68 0,-57.07 -10.72,-105.08 -32.16,-143.97 -21.45,-38.63 -47.99,-65.19 -79.65,-79.66 100.97,-44.87 151.46,-131.14 151.46,-258.77 0,-110.2 -26.07,-188.38 -78.16,-234.48 -52.11,-45.88 -138.37,-68.84 -258.8,-68.84 H 3886.05 V 5403.9 h 979.06"
         style="fill:#252f68;fill-opacity:1;fill-rule:nonzero;stroke:none"
         transform="matrix(0.13333333,0,0,-0.13333333,0,1429.3333)" />
      <path
         id="path53"
         d="m 5451.88,5402.42 h 336.95 v -810.39 h 764.4 V 4308.52 H 5451.88 v 1093.9"
         style="fill:#252f68;fill-opacity:1;fill-rule:nonzero;stroke:none"
         transform="matrix(0.13333333,0,0,-0.13333333,0,1429.3333)" />
      <path
         id="path54"
         d="m 8951.87,5402.42 -424.39,-1093.9 h -516 l -186.94,670.91 c 0,2.02 -1.99,28.56 -5.99,79.65 -4.24,50.12 -9.97,75.18 -17.2,75.18 -5.98,0 -10.98,-25.06 -14.97,-75.18 -4.23,-51.09 -6.83,-77.63 -7.82,-79.65 l -185.47,-670.91 h -516.01 l -424.37,1093.9 h 360.05 l 303.27,-808.88 h 36.65 l 248.24,808.88 h 402.71 l 248.28,-808.88 h 36.64 l 303.25,808.88 h 360.07"
         style="fill:#252f68;fill-opacity:1;fill-rule:nonzero;stroke:none"
         transform="matrix(0.13333333,0,0,-0.13333333,0,1429.3333)" />
      <path
         id="path55"
         d="m 9681.05,5245.25 -9.4,150.09 c -0.93,19.69 -0.93,44.07 -1.86,71.29 h -2.81 c -6.59,-22.52 -14.07,-52.54 -21.58,-75.99 L 9599.44,5249 h -52.52 l -45.96,145.4 c -4.69,19.69 -12.21,49.71 -17.82,72.23 h -2.83 c 0,-23.47 -0.93,-47.85 -1.86,-71.29 l -9.38,-150.09 h -48.8 l 18.78,255.13 h 75.98 l 44.07,-124.75 c 5.65,-19.69 10.32,-38.46 16.89,-64.71 h 0.93 c 6.57,23.44 12.2,45.02 17.83,63.79 l 44.09,125.67 h 73.15 l 19.7,-255.13 z m -275.77,255.13 v -42.2 h -81.6 v -212.93 h -50.65 v 212.93 h -81.6 v 42.2 h 213.85"
         style="fill:#252f68;fill-opacity:1;fill-rule:nonzero;stroke:none"
         transform="matrix(0.13333333,0,0,-0.13333333,0,1429.3333)" />
      <path
         id="path56"
         d="M 270,360 H 0"
         style="fill:none;stroke:#000000;stroke-width:5;stroke-linecap:butt;stroke-linejoin:miter;stroke-miterlimit:4;stroke-dasharray:none;stroke-opacity:1"
         transform="matrix(0.13333333,0,0,-0.13333333,0,1429.3333)" />
      <path
         id="path57"
         d="M 360,270 V 0"
         style="fill:none;stroke:#000000;stroke-width:5;stroke-linecap:butt;stroke-linejoin:miter;stroke-miterlimit:4;stroke-dasharray:none;stroke-opacity:1"
         transform="matrix(0.13333333,0,0,-0.13333333,0,1429.3333)" />
      <path
         id="path58"
         d="M 270,10360 H 0"
         style="fill:none;stroke:#000000;stroke-width:5;stroke-linecap:butt;stroke-linejoin:miter;stroke-miterlimit:4;stroke-dasharray:none;stroke-opacity:1"
         transform="matrix(0.13333333,0,0,-0.13333333,0,1429.3333)" />
      <path
         id="path59"
         d="m 360,10450 v 270"
         style="fill:none;stroke:#000000;stroke-width:5;stroke-linecap:butt;stroke-linejoin:miter;stroke-miterlimit:4;stroke-dasharray:none;stroke-opacity:1"
         transform="matrix(0.13333333,0,0,-0.13333333,0,1429.3333)" />
      <path
         id="path60"
         d="m 12450,10360 h 270"
         style="fill:none;stroke:#000000;stroke-width:5;stroke-linecap:butt;stroke-linejoin:miter;stroke-miterlimit:4;stroke-dasharray:none;stroke-opacity:1"
         transform="matrix(0.13333333,0,0,-0.13333333,0,1429.3333)" />
      <path
         id="path61"
         d="m 12360,10450 v 270"
         style="fill:none;stroke:#000000;stroke-width:5;stroke-linecap:butt;stroke-linejoin:miter;stroke-miterlimit:4;stroke-dasharray:none;stroke-opacity:1"
         transform="matrix(0.13333333,0,0,-0.13333333,0,1429.3333)" />
      <path
         id="path62"
         d="m 12450,360 h 270"
         style="fill:none;stroke:#000000;stroke-width:5;stroke-linecap:butt;stroke-linejoin:miter;stroke-miterlimit:4;stroke-dasharray:none;stroke-opacity:1"
         transform="matrix(0.13333333,0,0,-0.13333333,0,1429.3333)" />
      <path
         id="path63"
         d="M 12360,270 V 0"
         style="fill:none;stroke:#000000;stroke-width:5;stroke-linecap:butt;stroke-linejoin:miter;stroke-miterlimit:4;stroke-dasharray:none;stroke-opacity:1"
         transform="matrix(0.13333333,0,0,-0.13333333,0,1429.3333)" />
    </g>
  </g>
</svg>
